<svg width="1700" height="1008" fill="none" xmlns="http://www.w3.org/2000/svg"><path d="M1153 174H547v697h606V174ZM1681 174h-528v697h528V174Z" stroke="#96DAFF" stroke-miterlimit="10"/><path d="M877 245h-53v102h53V245ZM823.5 276h53M823.5 310h53" stroke="#96DAFF" stroke-miterlimit="10"/><path d="M881 241h-61v106h61V241Z" stroke="#96DAFF" stroke-miterlimit="10"/><path d="M908 223H794v124h114V223ZM851 244.5v102M1068 245h-53v102h53V245Z" stroke="#96DAFF" stroke-miterlimit="10"/><path d="M1072 241h-61v106h61V241Z" stroke="#96DAFF" stroke-miterlimit="10"/><path d="M1091 223h-98v124h98V223ZM1042 244.5v102M1015.5 276h53M1015.5 310h53M1278 245h-53v102h53V245Z" stroke="#96DAFF" stroke-miterlimit="10"/><path d="M1282 241h-61v106h61V241Z" stroke="#96DAFF" stroke-miterlimit="10"/><path d="M1301 223h-98v124h98V223ZM1252 244.5v102M1225.5 276h53M1225.5 310h53M1596 245h-53v102h53V245Z" stroke="#96DAFF" stroke-miterlimit="10"/><path d="M1600 241h-61v106h61V241Z" stroke="#96DAFF" stroke-miterlimit="10"/><path d="M1619 223h-98v124h98V223ZM1570 244.5v102M1543.5 276h53M1543.5 310h53M1437 245h-53v102h53V245Z" stroke="#96DAFF" stroke-miterlimit="10"/><path d="M1441 241h-61v106h61V241Z" stroke="#96DAFF" stroke-miterlimit="10"/><path d="M1460 223h-98v124h98V223ZM1411 244.5v102M1384.5 276h53M1384.5 310h53M684 245h-53v102h53V245Z" stroke="#96DAFF" stroke-miterlimit="10"/><path d="M688 241h-61v106h61V241Z" stroke="#96DAFF" stroke-miterlimit="10"/><path d="M707 223h-98v124h98V223ZM658 244.5v102M631.5 276h53M631.5 310h53M1068 665h-53v102h53V665Z" stroke="#96DAFF" stroke-miterlimit="10"/><path d="M1072 661h-61v106h61V661ZM1068 775h-52v32h52v-32Z" stroke="#96DAFF" stroke-miterlimit="10"/><path d="M1091 632h-98v183h98V632ZM1042 664.5v102M1015.5 699h53M1015.5 733h53M1278 665h-53v102h53V665Z" stroke="#96DAFF" stroke-miterlimit="10"/><path d="M1282 661h-61v106h61V661ZM1278 775h-52v32h52v-32Z" stroke="#96DAFF" stroke-miterlimit="10"/><path d="M1301 632h-98v183h98V632ZM1252 664.5v102M1225.5 699h53M1225.5 733h53M1437 665h-53v102h53V665Z" stroke="#96DAFF" stroke-miterlimit="10"/><path d="M1441 661h-61v106h61V661ZM1437 775h-52v32h52v-32Z" stroke="#96DAFF" stroke-miterlimit="10"/><path d="M1460 632h-98v183h98V632ZM1411 664.5v102M1384.5 699h53M1384.5 733h53M1596 665h-53v102h53V665Z" stroke="#96DAFF" stroke-miterlimit="10"/><path d="M1600 661h-61v106h61V661ZM1596 775h-52v32h52v-32Z" stroke="#96DAFF" stroke-miterlimit="10"/><path d="M1619 632h-98v183h98V632ZM1570 664.5v102M1543.5 699h53M1543.5 733h53M684 665h-53v102h53V665Z" stroke="#96DAFF" stroke-miterlimit="10"/><path d="M688 661h-61v106h61V661ZM684 775h-52v32h52v-32Z" stroke="#96DAFF" stroke-miterlimit="10"/><path d="M707 632h-98v183h98V632ZM658 664.5v102M631.5 699h53M631.5 733h53M1068 467h-53v102h53V467ZM1015.5 501h53M1015.5 535h53" stroke="#96DAFF" stroke-miterlimit="10"/><path d="M1072 419h-61v150h61V419Z" stroke="#96DAFF" stroke-miterlimit="10"/><path d="M1089.5 420h-96l48-37 48 37Z" stroke="#96DAFF" stroke-miterlimit="10"/><path d="M1091 382h-98v234h98V382ZM1042 466.5v102" stroke="#96DAFF" stroke-miterlimit="10"/><path d="M1068 577h-52v32h52v-32ZM1596 467h-53v102h53V467ZM1543.5 501h53M1543.5 535h53" stroke="#96DAFF" stroke-miterlimit="10"/><path d="M1600 419h-61v150h61V419Z" stroke="#96DAFF" stroke-miterlimit="10"/><path d="M1617.5 420h-96l48-37 48 37Z" stroke="#96DAFF" stroke-miterlimit="10"/><path d="M1619 382h-98v234h98V382ZM1570 466.5v102" stroke="#96DAFF" stroke-miterlimit="10"/><path d="M1596 577h-52v32h52v-32ZM1436 467h-53v102h53V467ZM1383.5 501h53M1383.5 535h53" stroke="#96DAFF" stroke-miterlimit="10"/><path d="M1440 419h-61v150h61V419Z" stroke="#96DAFF" stroke-miterlimit="10"/><path d="M1457.5 420h-96l48-37 48 37Z" stroke="#96DAFF" stroke-miterlimit="10"/><path d="M1459 382h-98v234h98V382ZM1410 466.5v102" stroke="#96DAFF" stroke-miterlimit="10"/><path d="M1436 577h-52v32h52v-32ZM1278 467h-53v102h53V467ZM1225.5 501h53M1225.5 535h53" stroke="#96DAFF" stroke-miterlimit="10"/><path d="M1282 419h-61v150h61V419Z" stroke="#96DAFF" stroke-miterlimit="10"/><path d="M1299.5 420h-96l48-37 48 37Z" stroke="#96DAFF" stroke-miterlimit="10"/><path d="M1301 382h-98v234h98V382ZM1252 466.5v102" stroke="#96DAFF" stroke-miterlimit="10"/><path d="M1278 577h-52v32h52v-32ZM684 467h-53v102h53V467ZM631.5 501h53M631.5 535h53" stroke="#96DAFF" stroke-miterlimit="10"/><path d="M688 419h-61v150h61V419Z" stroke="#96DAFF" stroke-miterlimit="10"/><path d="M705.5 420h-96l48-37 48 37Z" stroke="#96DAFF" stroke-miterlimit="10"/><path d="M707 382h-98v234h98V382ZM658 466.5v102" stroke="#96DAFF" stroke-miterlimit="10"/><path d="M684 577h-52v32h52v-32ZM885 466h-70v137h70V466ZM815.5 501h70M850 466.5v137M815.5 535h70" stroke="#96DAFF" stroke-miterlimit="10"/><path d="M899 418h-98v185h98V418Z" stroke="#96DAFF" stroke-miterlimit="10"/><path d="M906 383H794v220h112V383ZM547.5 223h606M1153.5 223h528M547.5 383h606" stroke="#96DAFF" stroke-miterlimit="10"/><path d="M906 418H794l56-34.5 56 34.5Z" stroke="#96DAFF" stroke-miterlimit="10" stroke-linejoin="round"/><path d="M1091.5 659h62M1091.5 681h62M1091.5 703h62M1091.5 725h62M1091.5 747h62M1300.5 659h62M1300.5 681h62M1300.5 703h62M1300.5 725h62M1300.5 747h62M1459.5 659h62M1459.5 681h62M1459.5 703h62M1459.5 725h62M1459.5 747h62M1619.5 659h62M1619.5 681h62M1619.5 703h62M1619.5 725h62M1619.5 747h62M547.5 659h62M547.5 681h62M547.5 703h62M547.5 725h62M547.5 747h62M1175 160H526v14h649v-14ZM1183 153H518v7h665v-7ZM1692 160h-517v14h517v-14ZM1699 153h-516v7h516v-7ZM1153 358H547v7h606v-7ZM1692 358h-539v7h539v-7ZM922 1H779v7h143V1ZM922 8l261 145M1434 8l261 145M779 8 518 153M547.5 616h606M547.5 815h606M1153.5 815h528M1011 603H689v13h322v-13ZM936 815H764v8h172v-8ZM936 823H764v8h172v-8ZM936 831H764v8h172v-8ZM936 839H700v8h236v-8ZM957 847H700v8h257v-8ZM972 855H700v8h272v-8ZM993 863H700v8h293v-8ZM822 572h-7v7h7v-7ZM815 572h-7v7h7v-7ZM808 572h-7v7h7v-7ZM801 572h-7v7h7v-7ZM794 572h-7v7h7v-7ZM787 572h-7v7h7v-7ZM780 572h-7v7h7v-7ZM773 572h-7v7h7v-7ZM766 572h-7v7h7v-7ZM759 572h-7v7h7v-7ZM752 572h-7v7h7v-7ZM745 572h-7v7h7v-7ZM738 572h-7v7h7v-7ZM731 572h-7v7h7v-7ZM724 572h-7v7h7v-7ZM717 572h-7v7h7v-7ZM710 572h-7v7h7v-7ZM703 572h-7v7h7v-7ZM696 572h-7v7h7v-7ZM829 572h-7v7h7v-7ZM836 572h-7v7h7v-7ZM843 572h-7v7h7v-7ZM850 572h-7v7h7v-7ZM857 572h-7v7h7v-7ZM864 572h-7v7h7v-7ZM871 572h-7v7h7v-7ZM878 572h-7v7h7v-7ZM885 572h-7v7h7v-7ZM892 572h-7v7h7v-7ZM899 572h-7v7h7v-7ZM906 572h-7v7h7v-7ZM913 572h-7v7h7v-7ZM920 572h-7v7h7v-7ZM927 572h-7v7h7v-7ZM934 572h-7v7h7v-7ZM941 572h-7v7h7v-7ZM948 572h-7v7h7v-7ZM955 572h-7v7h7v-7ZM962 572h-7v7h7v-7ZM969 572h-7v7h7v-7ZM976 572h-7v7h7v-7ZM983 572h-7v7h7v-7ZM990 572h-7v7h7v-7ZM997 572h-7v7h7v-7ZM1004 572h-7v7h7v-7ZM1011 572h-7v7h7v-7Z" stroke="#96DAFF" stroke-miterlimit="10"/><path d="M1011 548H689v55h322v-55ZM728 616h-21v199h21V616ZM993 616h-21v199h21V616ZM957 616h-21v199h21V616ZM764 616h-21v199h21V616ZM696 548.5v55M703 548.5v55M710 548.5v55M717 548.5v55M724 548.5v55M731 548.5v55M738 548.5v55M745 548.5v55M752 548.5v55M759 548.5v55M766 548.5v55M773 548.5v55M780 548.5v55M787 548.5v55M808 548.5v55M822 548.5v55M829 548.5v55M836 548.5v55M843 548.5v55M857 548.5v55M864 548.5v55M871 548.5v55M878 548.5v55M892 548.5v55M913 548.5v55M920 548.5v55M927 548.5v55M934 548.5v55M941 548.5v55M948 548.5v55M955 548.5v55M962 548.5v55M969 548.5v55M976 548.5v55M983 548.5v55M990 548.5v55M997 548.5v55M1004 548.5v55M778 694c0-22.6 32.2-41 72-41s72 18.4 72 41" stroke="#96DAFF" stroke-miterlimit="10"/><path d="M764 694c0-30.1 38.5-54.5 86-54.5s86 24.4 86 54.5" stroke="#96DAFF" stroke-miterlimit="10"/><path d="M801 694c0-12.2 21.9-22 49-22s49 9.8 49 22M609.5 632h-62M1091.5 632h62M922 694H778v121h144V694ZM850 653.5v162M831 694l-15-36M808 694l-16-24M869 694l15-36M892 694l16-24M547.5 383h606M1153.5 383h528M1692 616h-539v16h539v-16ZM922.5 8h512M19 815h528V174H19v641Z" stroke="#96DAFF" stroke-miterlimit="10"/><path d="M422 347h53V245h-53v102Z" stroke="#96DAFF" stroke-miterlimit="10"/><path d="M418 347h61V241h-61v106Z" stroke="#96DAFF" stroke-miterlimit="10"/><path d="M399 347h98V223h-98v124ZM448 244.5v102M474.5 276h-53M474.5 310h-53M104 347h53V245h-53v102Z" stroke="#96DAFF" stroke-miterlimit="10"/><path d="M100 347h61V241h-61v106Z" stroke="#96DAFF" stroke-miterlimit="10"/><path d="M81 347h98V223H81v124ZM130 244.5v102M156.5 276h-53M156.5 310h-53M263 347h53V245h-53v102Z" stroke="#96DAFF" stroke-miterlimit="10"/><path d="M259 347h61V241h-61v106Z" stroke="#96DAFF" stroke-miterlimit="10"/><path d="M240 347h98V223h-98v124ZM289 244.5v102M315.5 276h-53M315.5 310h-53M422 767h53V665h-53v102Z" stroke="#96DAFF" stroke-miterlimit="10"/><path d="M418 767h61V661h-61v106ZM423 807h52v-32h-52v32Z" stroke="#96DAFF" stroke-miterlimit="10"/><path d="M399 815h98V632h-98v183ZM448 664.5v102M474.5 699h-53M474.5 733h-53M263 767h53V665h-53v102Z" stroke="#96DAFF" stroke-miterlimit="10"/><path d="M259 767h61V661h-61v106ZM264 807h52v-32h-52v32Z" stroke="#96DAFF" stroke-miterlimit="10"/><path d="M240 815h98V632h-98v183ZM289 664.5v102M315.5 699h-53M315.5 733h-53M104 767h53V665h-53v102Z" stroke="#96DAFF" stroke-miterlimit="10"/><path d="M100 767h61V661h-61v106ZM105 807h52v-32h-52v32Z" stroke="#96DAFF" stroke-miterlimit="10"/><path d="M81 815h98V632H81v183ZM130 664.5v102M156.5 699h-53M156.5 733h-53M422 976h53V874h-53v102Z" stroke="#96DAFF" stroke-miterlimit="10"/><path d="M418 976h61V870h-61v106ZM448 873.5v102M474.5 908h-53M474.5 942h-53M263 976h53V874h-53v102Z" stroke="#96DAFF" stroke-miterlimit="10"/><path d="M259 976h61V870h-61v106ZM289 873.5v102M315.5 908h-53M315.5 942h-53M104 976h53V874h-53v102Z" stroke="#96DAFF" stroke-miterlimit="10"/><path d="M100 976h61V870h-61v106ZM130 873.5v102M156.5 908h-53M156.5 942h-53M104 569h53V467h-53v102ZM156.5 501h-53M156.5 535h-53" stroke="#96DAFF" stroke-miterlimit="10"/><path d="M100 569h61V419h-61v150Z" stroke="#96DAFF" stroke-miterlimit="10"/><path d="M82.5 420h96l-48-37-48 37Z" stroke="#96DAFF" stroke-miterlimit="10"/><path d="M81 616h98V382H81v234ZM130 466.5v102" stroke="#96DAFF" stroke-miterlimit="10"/><path d="M104 609h52v-32h-52v32ZM264 569h53V467h-53v102ZM316.5 501h-53M316.5 535h-53" stroke="#96DAFF" stroke-miterlimit="10"/><path d="M260 569h61V419h-61v150Z" stroke="#96DAFF" stroke-miterlimit="10"/><path d="M242.5 420h96l-48-37-48 37Z" stroke="#96DAFF" stroke-miterlimit="10"/><path d="M241 616h98V382h-98v234ZM290 466.5v102" stroke="#96DAFF" stroke-miterlimit="10"/><path d="M264 609h52v-32h-52v32ZM422 569h53V467h-53v102ZM474.5 501h-53M474.5 535h-53" stroke="#96DAFF" stroke-miterlimit="10"/><path d="M418 569h61V419h-61v150Z" stroke="#96DAFF" stroke-miterlimit="10"/><path d="M400.5 420h96l-48-37-48 37Z" stroke="#96DAFF" stroke-miterlimit="10"/><path d="M399 616h98V382h-98v234ZM448 466.5v102" stroke="#96DAFF" stroke-miterlimit="10"/><path d="M422 609h52v-32h-52v32ZM546.5 223h-528M399.5 659h-61M399.5 681h-61M399.5 703h-61M399.5 725h-61M399.5 747h-61M240.5 659h-61M240.5 681h-61M240.5 703h-61M240.5 725h-61M240.5 747h-61M80.5 659h-61M80.5 681h-61M80.5 703h-61M80.5 725h-61M80.5 747h-61M8 174h517v-14H8v14ZM1 160h516v-7H1v7ZM8 365h539v-7H8v7ZM266 8 5 153M546.5 815h-527M546.5 383h-528M8 632h539v-16H8v16ZM778.5 8h-512M547 815H19v192h528V815ZM1153.5 848h528M855 766a2 2 0 1 0 .001-3.999A2 2 0 0 0 855 766ZM1001 815h-65v32h65v-32ZM1001 847.5v24M764 815h-93v24h93v-24ZM671 839.5v32" stroke="#96DAFF" stroke-miterlimit="10"/></svg>